<?xml version="1.0" standalone="no"?>
<!DOCTYPE svg PUBLIC "-//W3C//DTD SVG 20010904//EN"
 "http://www.w3.org/TR/2001/REC-SVG-20010904/DTD/svg10.dtd">
<svg version="1.0" xmlns="http://www.w3.org/2000/svg"
 width="800.000000pt" height="722.000000pt" viewBox="0 0 800.000000 722.000000"
 preserveAspectRatio="xMidYMid meet">

<g transform="translate(0.000000,722.000000) scale(0.100000,-0.100000)"
fill="#000000" stroke="none">
<path d="M3825 7194 c-151 -16 -361 -68 -512 -126 -615 -237 -1083 -768 -1254
-1422 -52 -202 -63 -291 -63 -536 -1 -283 19 -417 100 -694 19 -65 33 -125 30
-132 -7 -19 -144 -81 -228 -103 -141 -38 -213 -42 -625 -39 -343 3 -410 1
-489 -14 -342 -65 -627 -245 -736 -464 -36 -74 -42 -95 -46 -167 -3 -68 1 -94
21 -153 100 -294 416 -448 882 -431 286 11 537 66 777 172 150 66 223 120 360
268 333 359 394 407 531 415 332 20 640 -410 529 -738 -34 -100 -80 -152 -257
-288 -344 -264 -468 -368 -590 -494 -287 -298 -417 -591 -417 -943 -1 -372
172 -673 458 -800 215 -95 517 -120 806 -66 167 31 371 93 469 142 278 138
513 411 612 709 56 170 57 180 46 990 -3 298 -2 358 13 436 41 217 95 324 178
356 131 50 323 -23 471 -178 79 -83 100 -121 175 -311 170 -432 305 -664 499
-858 230 -232 502 -338 865 -339 416 0 653 116 777 382 55 118 76 218 76 362
0 377 -198 702 -530 868 -79 40 -185 70 -297 82 -49 6 -108 19 -131 29 -124
55 -206 204 -176 319 28 102 100 140 331 177 383 60 545 102 680 178 102 57
215 170 260 262 32 64 35 77 35 160 0 79 -4 97 -28 143 -77 146 -236 234 -427
234 -156 1 -212 -24 -420 -190 -204 -163 -342 -244 -465 -277 -64 -17 -201
-21 -249 -7 -63 17 -58 49 24 162 155 215 216 809 129 1260 -45 233 -173 545
-306 745 -318 480 -773 784 -1338 895 -85 17 -155 23 -310 25 -110 2 -218 1
-240 -1z m332 -100 c-3 -3 -12 -4 -19 -1 -8 3 -5 6 6 6 11 1 17 -2 13 -5z
m-770 -930 c-3 -3 -12 -4 -19 -1 -8 3 -5 6 6 6 11 1 17 -2 13 -5z m1220 0 c-3
-3 -12 -4 -19 -1 -8 3 -5 6 6 6 11 1 17 -2 13 -5z m90 0 c-3 -3 -12 -4 -19 -1
-8 3 -5 6 6 6 11 1 17 -2 13 -5z m-1151 -119 c132 -55 243 -209 284 -394 16
-69 16 -240 0 -316 -20 -93 -82 -216 -146 -284 -60 -65 -156 -121 -206 -121
l-30 0 30 30 c73 72 83 249 24 408 -56 151 -163 281 -258 312 -20 7 -59 10
-86 8 -55 -6 -96 -37 -128 -98 -49 -90 -4 113 48 220 52 109 154 208 242 238
74 25 161 24 226 -3z m199 -15 c21 -22 37 -40 34 -40 -3 0 -23 18 -44 40 -21
22 -37 40 -34 40 3 0 23 -18 44 -40z m898 5 c-59 -51 -78 -106 -78 -230 0 -76
6 -118 24 -175 64 -207 191 -349 314 -350 49 0 88 20 125 66 l30 36 -14 -58
c-40 -172 -156 -327 -280 -374 -37 -13 -79 -20 -128 -20 -61 0 -83 5 -134 30
-118 59 -220 204 -257 365 -20 83 -22 251 -5 327 55 246 218 414 404 417 l40
1 -41 -35z m323 -7 l29 -33 -32 29 c-31 28 -38 36 -30 36 2 0 16 -15 33 -32z
m-1836 19 c0 -2 -10 -12 -22 -23 l-23 -19 19 23 c18 21 26 27 26 19z m817
-524 c-3 -10 -5 -2 -5 17 0 19 2 27 5 18 2 -10 2 -26 0 -35z m180 -60 c-2 -21
-4 -6 -4 32 0 39 2 55 4 38 2 -18 2 -50 0 -70z m-180 -25 c-2 -13 -4 -5 -4 17
-1 22 1 32 4 23 2 -10 2 -28 0 -40z m2010 -220 c-3 -8 -6 -5 -6 6 -1 11 2 17
5 13 3 -3 4 -12 1 -19z m-3860 -10 c-3 -8 -6 -5 -6 6 -1 11 2 17 5 13 3 -3 4
-12 1 -19z m974 -195 c13 -16 12 -17 -3 -4 -10 7 -18 15 -18 17 0 8 8 3 21
-13z m-974 -25 c-3 -7 -5 -2 -5 12 0 14 2 19 5 13 2 -7 2 -19 0 -25z m2233
-23 c13 -14 21 -25 18 -25 -2 0 -15 11 -28 25 -13 14 -21 25 -18 25 2 0 15
-11 28 -25z m1627 -7 c-3 -7 -5 -2 -5 12 0 14 2 19 5 13 2 -7 2 -19 0 -25z
m-2197 18 c0 -2 -8 -10 -17 -17 -16 -13 -17 -12 -4 4 13 16 21 21 21 13z
m-317 -153 c-7 -2 -19 -2 -25 0 -7 3 -2 5 12 5 14 0 19 -2 13 -5z m1214 1 c-3
-3 -12 -4 -19 -1 -8 3 -5 6 6 6 11 1 17 -2 13 -5z m-3614 -781 c-7 -2 -19 -2
-25 0 -7 3 -2 5 12 5 14 0 19 -2 13 -5z m100 0 c-13 -2 -35 -2 -50 0 -16 2 -5
4 22 4 28 0 40 -2 28 -4z m405 -10 c-21 -2 -57 -2 -80 0 -24 2 -7 4 37 4 44 0
63 -2 43 -4z m5722 -36 c0 -2 -15 -16 -32 -33 l-33 -29 29 33 c28 30 36 37 36
29z m-4657 -124 c-13 -2 -35 -2 -50 0 -16 2 -5 4 22 4 28 0 40 -2 28 -4z
m-453 -247 c0 -2 -8 -10 -17 -17 -16 -13 -17 -12 -4 4 13 16 21 21 21 13z
m-190 -210 c0 -2 -8 -10 -17 -17 -16 -13 -17 -12 -4 4 13 16 21 21 21 13z
m1257 -178 c-3 -8 -6 -5 -6 6 -1 11 2 17 5 13 3 -3 4 -12 1 -19z m-2997 -33
c13 -14 21 -25 18 -25 -2 0 -15 11 -28 25 -13 14 -21 25 -18 25 2 0 15 -11 28
-25z m827 -181 c-3 -3 -12 -4 -19 -1 -8 3 -5 6 6 6 11 1 17 -2 13 -5z m-254
-11 c-13 -2 -35 -2 -50 0 -16 2 -5 4 22 4 28 0 40 -2 28 -4z m140 0 c-7 -2
-19 -2 -25 0 -7 3 -2 5 12 5 14 0 19 -2 13 -5z m2167 -187 c0 -2 -8 -10 -17
-17 -16 -13 -17 -12 -4 4 13 16 21 21 21 13z m3821 -73 c13 -16 12 -17 -3 -4
-10 7 -18 15 -18 17 0 8 8 3 21 -13z m-2804 -155 c-3 -8 -6 -5 -6 6 -1 11 2
17 5 13 3 -3 4 -12 1 -19z m-10 -245 c-2 -21 -4 -4 -4 37 0 41 2 58 4 38 2
-21 2 -55 0 -75z m-1677 -67 c0 -2 -8 -10 -17 -17 -16 -13 -17 -12 -4 4 13 16
21 21 21 13z m-130 -130 c0 -2 -8 -10 -17 -17 -16 -13 -17 -12 -4 4 13 16 21
21 21 13z m4877 -38 c-3 -8 -6 -5 -6 6 -1 11 2 17 5 13 3 -3 4 -12 1 -19z
m-3060 -60 c-3 -7 -5 -2 -5 12 0 14 2 19 5 13 2 -7 2 -19 0 -25z m10 -215 c-3
-10 -5 -4 -5 12 0 17 2 24 5 18 2 -7 2 -21 0 -30z m2286 -360 c-7 -2 -19 -2
-25 0 -7 3 -2 5 12 5 14 0 19 -2 13 -5z m60 0 c-7 -2 -19 -2 -25 0 -7 3 -2 5
12 5 14 0 19 -2 13 -5z m-3746 -969 c-3 -3 -12 -4 -19 -1 -8 3 -5 6 6 6 11 1
17 -2 13 -5z"/>
</g>
</svg>
