<svg width="449" height="99" viewBox="0 0 449 99" fill="none" xmlns="http://www.w3.org/2000/svg">
<path d="M13.7933 24.9084C13.6684 24.5937 13.7412 24.4313 13.7933 24.3894C13.892 24.2689 14.3716 24.5624 14.599 24.7243C18.8495 27.0012 26.0186 28.056 29.225 28.0141C31.7901 27.9807 38.4823 27.7156 41.5078 27.5872C41.5999 27.6006 41.6284 27.7156 41.6311 27.7714C41.3434 29.5628 36.5092 34.9539 35.3746 35.9166C34.24 36.8793 28.781 41.316 28.7481 41.3579C28.7152 41.3997 28.6906 41.4165 28.5837 41.4249C28.4982 41.4315 28.4384 41.383 28.4193 41.3579L22.1956 35.9166C19.1373 33.5643 15.7418 28.6252 15.1087 27.604C14.4757 26.5827 13.9495 25.3019 13.7933 24.9084Z" fill="#C29BA5"/>
<path d="M30.3974 81.7459C29.6739 80.7212 29.3505 79.0085 29.2793 78.2802C27.5363 81.1599 25.7797 83.169 25.1192 83.8135C24.4423 84.5865 22.518 86.4555 20.2357 87.748C17.3829 89.3637 14.9904 89.3134 14.1929 89.3386C13.555 89.3586 13.5873 89.7153 13.6832 89.8911C16.2976 93.2228 22.4226 96.7638 28.6298 96.5462C34.837 96.3285 40.1974 91.7997 41.4059 90.2929C42.6145 88.7861 42.2198 88.5265 42.1212 88.2587C42.0225 87.9908 40.8386 87.2458 38.3886 86.4421C35.9387 85.6385 34.9603 85.4041 33.6531 84.8432C32.3459 84.2823 31.3018 83.0267 30.3974 81.7459Z" fill="#C29BA5"/>
<path fill-rule="evenodd" clip-rule="evenodd" d="M11.2463 28.8158C-2.88248 9.18895 21.9438 0.0434456 21.9438 0.0434456C18.5077 -0.248119 14.6167 0.982448 11.8934 2.10154C8.63898 3.43892 5.72837 5.55854 3.57143 8.37744C-0.0583214 13.1212 -0.378234 18.1073 0.265669 22.0023C0.848339 25.527 2.39862 28.805 4.60878 31.5818C9.83926 38.1534 17.6993 45.1072 22.7893 49.3454C16.5672 54.4406 6.49442 63.1842 3.09779 68.9945C3.09779 68.9945 -5.78317 82.7641 6.52909 93.5538C6.52909 93.5538 13.5935 98.7945 22.0708 99C22.0708 99 -0.0307218 91.6014 9.153 73.2076C9.153 73.2076 14.8045 62.5207 27.1944 54.1276C27.4861 53.93 27.7755 53.729 28.0625 53.5246C28.3495 53.729 28.6389 53.93 28.9306 54.1276C41.3205 62.5207 46.972 73.2076 46.972 73.2076C56.1557 91.6014 34.0542 99 34.0542 99C42.5315 98.7945 49.5959 93.5538 49.5959 93.5538C61.9082 82.7641 53.0272 68.9945 53.0272 68.9945C49.6306 63.1842 39.5578 54.4406 33.3357 49.3454C38.4257 45.1072 46.2858 38.1534 51.5162 31.5818C53.7264 28.805 55.2767 25.527 55.8593 22.0023C56.5032 18.1073 56.1833 13.1212 52.5536 8.37744C50.3966 5.55854 47.486 3.43892 44.2316 2.10154C41.5084 0.982448 37.6173 -0.248119 34.1812 0.0434456C34.1812 0.0434456 59.0075 9.18895 44.8787 28.8158C44.8787 28.8158 40.3711 36.0575 28.0625 45.1551C15.754 36.0575 11.2463 28.8158 11.2463 28.8158Z" fill="#D7D7D7"/>
<path d="M92.6676 89.1H85.8382V49.6145C85.8382 43.661 87.9669 38.5831 92.2242 34.3806C96.4814 30.1782 101.626 28.0769 107.657 28.0769C113.629 28.0769 118.743 30.1782 123.001 34.3806C127.317 38.6414 129.475 43.7194 129.475 49.6145C129.475 55.568 127.495 60.6459 123.533 64.8484C119.63 69.0508 114.9 71.152 109.342 71.152C105.912 71.152 102.72 70.3057 99.7631 68.6131C96.8658 66.862 94.5006 64.5273 92.6676 61.609V89.1ZM118.211 39.1959C115.314 36.2775 111.796 34.8184 107.657 34.8184C103.518 34.8184 99.97 36.2775 97.0136 39.1959C94.1163 42.0559 92.6676 45.5288 92.6676 49.6145C92.6676 53.7002 94.1163 57.2022 97.0136 60.1206C99.97 62.9806 103.518 64.4106 107.657 64.4106C111.796 64.4106 115.314 62.9806 118.211 60.1206C121.168 57.2022 122.646 53.7002 122.646 49.6145C122.646 45.5288 121.168 42.0559 118.211 39.1959Z" fill="#C29BA5"/>
<path d="M155.041 28.0769C155.218 28.0769 155.514 28.1061 155.927 28.1645C156.341 28.1645 156.637 28.1645 156.814 28.1645V34.9935C155.987 34.8767 155.395 34.8184 155.041 34.8184C151.848 34.8184 149.128 35.9565 146.881 38.2329C144.634 40.4508 143.51 43.1357 143.51 46.2875V69.8388H136.681V46.2875C136.681 41.268 138.455 36.978 142.003 33.4176C145.609 29.8571 149.955 28.0769 155.041 28.0769Z" fill="#C29BA5"/>
<path d="M171.66 29.3902V69.8388H164.831V29.3902H171.66ZM171.749 12.4053C172.695 13.3392 173.168 14.4773 173.168 15.8198C173.168 17.1622 172.695 18.3004 171.749 19.2343C170.803 20.1682 169.65 20.6351 168.29 20.6351C166.93 20.6351 165.777 20.1682 164.831 19.2343C163.885 18.3004 163.412 17.1622 163.412 15.8198C163.412 14.4773 163.885 13.3392 164.831 12.4053C165.777 11.4714 166.93 11.0045 168.29 11.0045C169.65 11.0045 170.803 11.4714 171.749 12.4053Z" fill="#C29BA5"/>
<path d="M224.83 28.0769C229.146 28.0769 232.812 29.6529 235.828 32.8047C238.843 35.9565 240.351 39.7796 240.351 44.2739V69.8388H233.522V44.2739C233.522 41.6473 232.576 39.4294 230.683 37.62C228.85 35.7522 226.604 34.8184 223.943 34.8184C221.341 34.8184 219.094 35.7522 217.202 37.62C215.31 39.4294 214.364 41.6473 214.364 44.2739V69.8388H207.534V44.2739C207.534 41.6473 206.588 39.4294 204.696 37.62C202.863 35.7522 200.616 34.8184 197.956 34.8184C195.295 34.8184 193.018 35.7522 191.126 37.62C189.293 39.4294 188.377 41.6473 188.377 44.2739V69.8388H181.547V44.2739C181.547 39.7796 183.055 35.9565 186.071 32.8047C189.086 29.6529 192.752 28.0769 197.069 28.0769C200.084 28.0769 202.834 28.8941 205.317 30.5284C207.801 32.1627 209.693 34.3222 210.994 37.0071C212.235 34.3222 214.098 32.1627 216.581 30.5284C219.124 28.8941 221.873 28.0769 224.83 28.0769Z" fill="#C29BA5"/>
<path d="M269.65 71.152C263.619 71.152 258.475 69.0508 254.218 64.8484C249.96 60.6459 247.832 55.568 247.832 49.6145C247.832 43.661 249.96 38.5831 254.218 34.3806C258.475 30.1782 263.619 28.0769 269.65 28.0769C275.622 28.0769 280.737 30.1782 284.994 34.3806C289.311 38.6414 291.469 43.7194 291.469 49.6145C291.469 55.5096 289.311 60.5876 284.994 64.8484C280.737 69.0508 275.622 71.152 269.65 71.152ZM280.205 39.1959C277.307 36.2775 273.789 34.8184 269.65 34.8184C265.511 34.8184 261.964 36.2775 259.007 39.1959C256.11 42.0559 254.661 45.5288 254.661 49.6145C254.661 53.7002 256.11 57.2022 259.007 60.1206C261.964 62.9806 265.511 64.4106 269.65 64.4106C273.789 64.4106 277.307 62.9806 280.205 60.1206C283.161 57.2022 284.639 53.7002 284.639 49.6145C284.639 45.5288 283.161 42.0559 280.205 39.1959Z" fill="#C29BA5"/>
<path d="M317.876 28.0769C318.053 28.0769 318.349 28.1061 318.763 28.1645C319.177 28.1645 319.472 28.1645 319.65 28.1645V34.9935C318.822 34.8767 318.231 34.8184 317.876 34.8184C314.683 34.8184 311.963 35.9565 309.716 38.2329C307.469 40.4508 306.346 43.1357 306.346 46.2875V69.8388H299.516V46.2875C299.516 41.268 301.29 36.978 304.838 33.4176C308.445 29.8571 312.791 28.0769 317.876 28.0769Z" fill="#C29BA5"/>
<path d="M359.128 3.3H365.957V49.6145C365.957 55.5096 363.799 60.5876 359.483 64.8484C355.225 69.0508 350.111 71.152 344.139 71.152C338.108 71.152 332.963 69.0508 328.706 64.8484C324.449 60.6459 322.32 55.568 322.32 49.6145C322.32 43.661 324.272 38.5831 328.174 34.3806C332.136 30.1782 336.896 28.0769 342.454 28.0769C345.883 28.0769 349.047 28.9524 351.944 30.7035C354.9 32.3961 357.295 34.7016 359.128 37.62V3.3ZM333.496 60.1206C336.452 62.9806 340 64.4106 344.139 64.4106C348.278 64.4106 351.796 62.9806 354.693 60.1206C357.65 57.2022 359.128 53.7002 359.128 49.6145C359.128 45.5288 357.65 42.0559 354.693 39.1959C351.796 36.2775 348.278 34.8184 344.139 34.8184C340 34.8184 336.452 36.2775 333.496 39.1959C330.598 42.0559 329.15 45.5288 329.15 49.6145C329.15 53.7002 330.598 57.2022 333.496 60.1206Z" fill="#C29BA5"/>
<path d="M382.047 29.3902V69.8388H375.218V29.3902H382.047ZM382.136 12.4053C383.082 13.3392 383.555 14.4773 383.555 15.8198C383.555 17.1622 383.082 18.3004 382.136 19.2343C381.19 20.1682 380.037 20.6351 378.677 20.6351C377.317 20.6351 376.164 20.1682 375.218 19.2343C374.271 18.3004 373.798 17.1622 373.798 15.8198C373.798 14.4773 374.271 13.3392 375.218 12.4053C376.164 11.4714 377.317 11.0045 378.677 11.0045C380.037 11.0045 381.19 11.4714 382.136 12.4053Z" fill="#C29BA5"/>
<path d="M409.407 71.152C403.849 71.152 399.089 69.0508 395.127 64.8484C391.225 60.6459 389.273 55.568 389.273 49.6145C389.273 43.661 391.402 38.5831 395.659 34.3806C399.917 30.1782 405.061 28.0769 411.092 28.0769C417.064 28.0769 422.179 30.1782 426.436 34.3806C430.752 38.6414 432.91 43.7194 432.91 49.6145V69.8388H426.081V61.609C424.248 64.5273 421.853 66.862 418.897 68.6131C416 70.3057 412.836 71.152 409.407 71.152ZM421.646 39.1959C418.749 36.2775 415.231 34.8184 411.092 34.8184C406.953 34.8184 403.405 36.2775 400.449 39.1959C397.551 42.0559 396.103 45.5288 396.103 49.6145C396.103 53.7002 397.551 57.2022 400.449 60.1206C403.405 62.9806 406.953 64.4106 411.092 64.4106C415.231 64.4106 418.749 62.9806 421.646 60.1206C424.603 57.2022 426.081 53.7002 426.081 49.6145C426.081 45.5288 424.603 42.0559 421.646 39.1959Z" fill="#C29BA5"/>
<path d="M449 3.3V69.8388H442.171V3.3H449Z" fill="#C29BA5"/>
</svg>
